<svg width="186" height="64" viewBox="0 0 186 64" fill="none" xmlns="http://www.w3.org/2000/svg">
<path d="M133.844 32.3488C133.798 28.6752 132.383 25.7056 128.94 24.2037C125.598 22.7456 122.246 23.0926 119.279 25.3462C117.717 26.532 116.647 28.0183 116.876 30.2056C117.037 31.7319 116.97 33.2918 116.889 34.8304C116.816 36.1917 117.334 37.2775 118.163 38.2667C120.413 40.9554 124.387 41.8655 128.078 40.5505C131.594 39.2979 133.833 36.1123 133.844 32.3488ZM116.836 45.6575V63.4714H106.806V15.7922H115.431C115.709 16.9245 115.998 18.095 116.317 19.3927C117.242 18.7796 118.078 18.1598 118.974 17.6415C124.563 14.4073 130.318 13.6354 136.232 16.7032C139.566 18.4324 141.675 21.2969 142.917 24.756C144.511 29.191 144.694 33.734 143.257 38.2462C141.477 43.835 137.526 47.1908 131.914 48.5141C126.647 49.7563 121.581 49.4403 117.216 45.7067C117.166 45.6643 117.063 45.6841 116.836 45.6575Z" fill="#260949"/>
<path d="M42.7063 16.4847H51.8297C52.0775 18.058 52.3256 19.6325 52.54 20.9928C54.0385 19.6334 55.4195 18.0728 57.0873 16.9311C60.73 14.4372 67.9907 14.0177 71.8017 17.1611C74.2085 19.1464 75.4092 21.6343 75.4299 24.6591C75.483 32.3691 75.4411 40.08 75.4348 47.7907C75.4348 47.8697 75.4007 47.9484 75.3505 48.1669H65.2817V46.8008C65.2814 41.0756 65.2814 35.3502 65.2812 29.6248C65.2812 29.3811 65.288 29.1375 65.2805 28.894C65.2183 26.8398 64.9869 24.8235 62.7404 23.9432C60.4249 23.0361 58.2381 23.441 56.4044 25.1135C53.8681 27.4268 53.021 30.5317 52.9055 33.7935C52.7517 38.133 52.8409 42.4815 52.8263 46.8261C52.8248 47.2603 52.826 47.6947 52.826 48.221H42.7063V16.4847Z" fill="#260949"/>
<path d="M31.997 48.2592C29.088 48.2592 26.2568 48.2821 23.4277 48.2193C23.1796 48.2137 22.7951 47.675 22.7291 47.3343C22.4835 46.0651 22.3441 44.7752 22.1302 43.2448C21.7791 43.7433 21.5554 44.0528 21.3398 44.3683C18.0241 49.2212 10.8139 51.2394 5.50195 48.7288C2.04497 47.0946 0.100113 44.2908 0.0528439 40.4696C-0.0451055 32.5191 0.0231194 24.5664 0.0231194 16.5207H10.1928V17.8496C10.1926 23.775 10.1921 29.7005 10.1918 35.626C10.1918 35.7478 10.1891 35.8694 10.1918 35.9912C10.2354 38.0145 10.5171 39.9482 12.7051 40.8158C14.8015 41.6474 17.3499 40.9562 18.9025 39.175C20.6152 37.2102 21.5393 34.848 21.6578 32.2962C21.8615 27.9223 21.8456 23.5385 21.9163 19.1585C21.9299 18.3094 21.9182 17.4597 21.9182 16.5183H31.997V48.2592Z" fill="#260949"/>
<path d="M173.736 27.4353C172.93 23.9432 169.596 22.1304 165.685 22.9454C161.895 23.7351 159.234 27.9135 159.973 32.0462C164.574 30.5048 169.161 28.9681 173.736 27.4353ZM185.059 30.3633C177.336 32.8232 169.677 35.2629 161.888 37.7441C163.513 39.8563 165.677 40.3802 167.975 40.484C170.319 40.5895 172.384 39.6319 174.471 38.3688C175.262 39.6858 176.006 40.9182 176.743 42.155C177.465 43.3686 178.18 44.5869 178.951 45.8924C176.16 47.519 173.254 48.578 170.147 48.9549C166.468 49.401 162.857 48.9588 159.419 47.5261C153.346 44.995 150.464 40.1633 149.881 33.8363C148.87 22.8704 157.765 15.2327 167.494 14.9226C177.303 14.6102 183.617 20.9416 185.059 30.3633Z" fill="#260949"/>
<path d="M96.0878 48.2312H86.1028V16.5168H96.0878V48.2312Z" fill="#260949"/>
<path d="M91.3867 1.71661e-05C94.3922 0.00757027 96.7549 2.23823 96.7778 5.08973C96.8002 7.8618 94.3505 10.1353 91.3514 10.1261C88.3237 10.1166 85.8116 7.88373 85.7814 5.17574C85.75 2.32303 88.2743 -0.00753689 91.3867 1.71661e-05Z" fill="#260949"/>
</svg>
